# This file uses meters as units for non-parametric coordinates.

mtllib total_tiles_building.mtl
v 6.644075 -7.113032 2.479754
v 6.644074 -7.180850 2.479754
v 6.644075 -7.113031 3.233891
v 6.644074 -7.180850 3.233891
v 5.177762 -7.113031 3.233891
v 5.177761 -7.180850 3.233891
v 5.177762 -7.113032 2.479754
v 5.177761 -7.180850 2.479754
v 6.299183 -7.129033 2.291091
v 6.299184 -7.164847 2.291091
v 6.299183 -7.129033 2.906199
v 6.299184 -7.164847 2.906199
v 6.328856 -7.129033 2.906199
v 6.328856 -7.164845 2.906199
v 6.328856 -7.129033 2.291091
v 6.328856 -7.164844 2.291091
v 3.782387 -7.129033 2.311495
v 3.782388 -7.164847 2.311495
v 3.782387 -7.129033 2.926603
v 3.782388 -7.164847 2.926603
v 3.752715 -7.129033 2.926603
v 3.752715 -7.164845 2.926603
v 3.752715 -7.129033 2.311495
v 3.752715 -7.164844 2.311495
v 5.529314 -7.129033 2.336939
v 5.529315 -7.164847 2.336939
v 5.529315 -7.129033 2.952048
v 5.529315 -7.164846 2.952048
v 5.499642 -7.129033 2.952048
v 5.499643 -7.164845 2.952048
v 5.499642 -7.129033 2.336939
v 5.499642 -7.164846 2.336939
v 4.476198 -7.129033 2.337460
v 4.476199 -7.164847 2.337460
v 4.476198 -7.129033 2.952568
v 4.476199 -7.164846 2.952568
v 4.505871 -7.129033 2.952568
v 4.505872 -7.164845 2.952568
v 4.505871 -7.129033 2.337460
v 4.505872 -7.164846 2.337460
v 3.364318 -7.113040 2.490290
v 3.364318 -7.180840 2.490290
v 3.364318 -7.113040 3.228495
v 3.364318 -7.180840 3.228495
v 4.880240 -7.113040 3.228495
v 4.880238 -7.180840 3.228495
v 4.880240 -7.113040 2.490290
v 4.880238 -7.180840 2.490290
vt 0.500000 0.319756
vt 0.073242 0.763564
vt 0.146381 0.039592
vt 0.100129 0.039592
vt 0.804362 0.188960
vt 0.714433 0.188960
vt 0.714433 0.082255
vt 0.804362 0.082255
vt 0.195790 0.143075
vt 0.149539 0.143075
vt 0.241325 0.763564
vt 0.241325 0.850010
vt 1.000000 -0.015725
vt -0.000000 -0.015725
vt -0.000000 1.015725
vt 1.000000 1.015725
vt 0.500000 0.319756
vt 0.500000 0.680245
vt 0.500000 0.680245
vt 0.073242 0.850010
vt 0.100129 0.095747
vt 0.146381 0.095747
vt 0.149539 0.035497
vt 0.195790 0.035497
vt 0.325379 0.468811
vt 0.325379 0.468811
vt 0.325379 0.585622
vt 0.325379 0.585622
vt 0.318027 0.585622
vt 0.318027 0.585622
vt 0.318027 0.468811
vt 0.318027 0.468811
vt 0.325379 0.468811
vt 0.325379 0.585622
vt 0.325379 0.585622
vt 0.325379 0.468811
vt 0.318027 0.585622
vt 0.318027 0.585622
vt 0.318027 0.468811
vt 0.318027 0.468811
vt 0.325379 0.468811
vt 0.325379 0.585622
vt 0.325379 0.585622
vt 0.325379 0.468811
vt 0.318027 0.585622
vt 0.318027 0.585622
vt 0.318027 0.468811
vt 0.318027 0.468811
vt 0.325379 0.468811
vt 0.325379 0.468811
vt 0.325379 0.585622
vt 0.325379 0.585622
vt 0.318027 0.585622
vt 0.318027 0.585622
vt 0.318027 0.468811
vt 0.318027 0.468811
vt 0.282592 0.054427
vt 0.206885 0.054427
vt 0.206885 0.146485
vt 0.282592 0.146485
vt 0.146381 0.039592
vt 0.100129 0.039592
vt 0.100129 0.095747
vt 0.146381 0.095747
vt 0.804362 0.188960
vt 0.714433 0.188960
vt 0.714433 0.082255
vt 0.804362 0.082255
vt 0.195790 0.143075
vt 0.149539 0.143075
vt 0.149539 0.035497
vt 0.195790 0.035497
vt 0.073242 0.763564
vt 0.241325 0.763564
vt 0.241325 0.850010
vt 0.073242 0.850010
vt -0.000000 0.139065
vt 1.000000 0.139065
vt 1.000000 0.860934
vt -0.000000 0.860934
vn 1.000000 -0.000007 0.000000
vn 1.000000 -0.000008 0.000000
vn 1.000000 -0.000008 0.000000
vn 1.000000 -0.000009 -0.000000
vn 0.000000 0.000000 1.000000
vn -0.000000 0.000000 1.000000
vn -0.000000 0.000000 1.000000
vn -0.000000 0.000000 1.000000
vn -1.000000 0.000003 -0.000000
vn -1.000000 0.000008 0.000000
vn -1.000000 0.000008 0.000000
vn -1.000000 0.000012 0.000000
vn 0.000000 0.000000 -1.000000
vn 0.000000 0.000000 -1.000000
vn 0.000000 0.000000 -1.000000
vn 0.000000 0.000000 -1.000000
vn -0.000000 -1.000000 -0.000001
vn 0.000000 -1.000000 -0.000001
vn 0.000000 -1.000000 -0.000001
vn 0.000000 -1.000000 -0.000001
vn 0.000000 1.000000 -0.000002
vn 0.000000 1.000000 -0.000002
vn 0.000000 1.000000 -0.000002
vn 0.000000 1.000000 -0.000002
vn -1.000000 -0.000025 -0.000000
vn -1.000000 -0.000016 -0.000000
vn -1.000000 -0.000016 -0.000000
vn -1.000000 -0.000008 0.000000
vn 0.000001 0.000000 1.000000
vn -0.000000 0.000000 1.000000
vn -0.000000 0.000000 1.000000
vn -0.000001 0.000000 1.000000
vn 1.000000 0.000017 0.000000
vn 1.000000 0.000009 0.000000
vn 1.000000 0.000009 0.000000
vn 1.000000 0.000000 0.000000
vn -0.000002 0.000000 -1.000000
vn -0.000000 0.000000 -1.000000
vn -0.000000 0.000000 -1.000000
vn 0.000002 0.000000 -1.000000
vn 0.000103 -1.000000 0.000000
vn 0.000082 -1.000000 -0.000001
vn 0.000082 -1.000000 -0.000001
vn 0.000062 -1.000000 -0.000003
vn 0.000000 1.000000 -0.000001
vn 0.000000 1.000000 0.000000
vn 0.000000 1.000000 0.000000
vn 0.000000 1.000000 0.000001
vn 1.000000 0.000026 -0.000000
vn 1.000000 0.000018 -0.000000
vn 1.000000 0.000018 -0.000000
vn 1.000000 0.000010 -0.000000
vn -0.000011 0.000000 1.000000
vn -0.000011 0.000000 1.000000
vn -0.000011 0.000000 1.000000
vn -0.000011 0.000000 1.000000
vn -1.000000 -0.000019 0.000000
vn -1.000000 -0.000018 -0.000000
vn -1.000000 -0.000018 -0.000000
vn -1.000000 -0.000017 -0.000000
vn -0.000000 0.000000 -1.000000
vn -0.000000 0.000000 -1.000000
vn -0.000000 0.000000 -1.000000
vn -0.000000 0.000000 -1.000000
vn -0.000103 -1.000000 -0.000000
vn -0.000082 -1.000000 -0.000002
vn -0.000082 -1.000000 -0.000002
vn -0.000062 -1.000000 -0.000003
vn 0.000000 1.000000 0.000001
vn 0.000000 1.000000 0.000001
vn 0.000000 1.000000 0.000001
vn 0.000000 1.000000 0.000001
vn 1.000000 0.000007 -0.000001
vn 1.000000 0.000018 -0.000001
vn 1.000000 0.000018 -0.000001
vn 1.000000 0.000029 -0.000001
vn -0.000005 0.000000 1.000000
vn -0.000005 0.000000 1.000000
vn -0.000005 0.000000 1.000000
vn -0.000005 0.000000 1.000000
vn -1.000000 -0.000027 0.000001
vn -1.000000 -0.000018 0.000001
vn -1.000000 -0.000018 0.000001
vn -1.000000 -0.000008 0.000001
vn -0.000003 -0.000000 -1.000000
vn -0.000001 -0.000000 -1.000000
vn -0.000001 -0.000000 -1.000000
vn 0.000002 -0.000000 -1.000000
vn -0.000041 -1.000000 -0.000000
vn -0.000041 -1.000000 0.000001
vn -0.000041 -1.000000 0.000001
vn -0.000041 -1.000000 0.000002
vn -0.000000 1.000000 -0.000002
vn -0.000000 1.000000 -0.000001
vn -0.000000 1.000000 -0.000001
vn -0.000000 1.000000 -0.000000
vn -1.000000 -0.000009 0.000000
vn -1.000000 -0.000009 0.000000
vn -1.000000 -0.000009 0.000000
vn -1.000000 -0.000010 0.000000
vn 0.000007 0.000000 1.000000
vn -0.000000 0.000000 1.000000
vn -0.000000 0.000000 1.000000
vn -0.000007 0.000000 1.000000
vn 1.000000 0.000020 -0.000000
vn 1.000000 0.000020 -0.000000
vn 1.000000 0.000020 -0.000000
vn 1.000000 0.000021 -0.000000
vn 0.000004 0.000000 -1.000000
vn 0.000000 0.000000 -1.000000
vn 0.000000 0.000000 -1.000000
vn -0.000004 0.000000 -1.000000
vn 0.000041 -1.000000 0.000002
vn 0.000041 -1.000000 0.000001
vn 0.000041 -1.000000 0.000001
vn 0.000041 -1.000000 0.000000
vn 0.000000 1.000000 -0.000001
vn 0.000000 1.000000 -0.000001
vn 0.000000 1.000000 -0.000001
vn 0.000000 1.000000 -0.000001
vn -1.000000 0.000003 0.000000
vn -1.000000 0.000005 0.000000
vn -1.000000 0.000005 0.000000
vn -1.000000 0.000006 -0.000000
vn -0.000000 0.000000 1.000000
vn -0.000000 0.000000 1.000000
vn -0.000000 0.000000 1.000000
vn -0.000000 0.000000 1.000000
vn 1.000000 -0.000025 0.000000
vn 1.000000 -0.000024 -0.000000
vn 1.000000 -0.000024 -0.000000
vn 1.000000 -0.000023 -0.000000
vn 0.000000 -0.000000 -1.000000
vn 0.000000 -0.000000 -1.000000
vn 0.000000 -0.000000 -1.000000
vn 0.000000 -0.000000 -1.000000
vn 0.000000 -1.000000 0.000000
vn 0.000000 -1.000000 -0.000000
vn 0.000000 -1.000000 -0.000000
vn 0.000000 -1.000000 -0.000000
vn 0.000000 1.000000 -0.000000
vn 0.000000 1.000000 -0.000000
vn 0.000000 1.000000 -0.000000
vn 0.000000 1.000000 0.000000
s 1
usemtl tot_tile_build_mat1
f 1/1/1 3/19/2 2/17/3
f 3/19/2 4/18/4 2/17/3
s 2
f 3/3/5 5/22/6 4/4/7
f 5/22/6 6/21/8 4/4/7
s 3
f 5/5/9 7/8/10 6/6/11
f 7/8/10 8/7/12 6/6/11
s 4
f 7/9/13 1/24/14 8/10/15
f 1/24/14 2/23/16 8/10/15
s 5
f 2/2/17 4/20/18 8/11/19
f 4/20/18 6/12/20 8/11/19
s 6
f 7/13/21 5/16/22 1/14/23
f 5/16/22 3/15/24 1/14/23
s 7
f 9/25/25 10/26/26 11/28/27
f 10/26/26 12/27/28 11/28/27
s 8
f 11/28/29 12/27/30 13/30/31
f 12/27/30 14/29/32 13/30/31
s 9
f 13/30/33 14/29/34 15/32/35
f 14/29/34 16/31/36 15/32/35
s 10
f 15/32/37 16/31/38 9/25/39
f 16/31/38 10/26/40 9/25/39
s 11
f 10/26/41 16/31/42 12/27/43
f 16/31/42 14/29/44 12/27/43
s 12
f 15/32/45 9/25/46 13/30/47
f 9/25/46 11/28/48 13/30/47
s 13
f 17/33/49 19/34/50 18/36/51
f 19/34/50 20/35/52 18/36/51
s 14
f 19/34/53 21/37/54 20/35/55
f 21/37/54 22/38/56 20/35/55
s 15
f 21/37/57 23/39/58 22/38/59
f 23/39/58 24/40/60 22/38/59
s 16
f 23/39/61 17/33/62 24/40/63
f 17/33/62 18/36/64 24/40/63
s 17
f 18/36/65 20/35/66 24/40/67
f 20/35/66 22/38/68 24/40/67
s 18
f 23/39/69 21/37/70 17/33/71
f 21/37/70 19/34/72 17/33/71
s 19
f 25/41/73 27/42/74 26/44/75
f 27/42/74 28/43/76 26/44/75
s 20
f 27/42/77 29/45/78 28/43/79
f 29/45/78 30/46/80 28/43/79
s 21
f 29/45/81 31/47/82 30/46/83
f 31/47/82 32/48/84 30/46/83
s 22
f 31/47/85 25/41/86 32/48/87
f 25/41/86 26/44/88 32/48/87
s 23
f 26/44/89 28/43/90 32/48/91
f 28/43/90 30/46/92 32/48/91
s 24
f 31/47/93 29/45/94 25/41/95
f 29/45/94 27/42/96 25/41/95
s 25
f 33/49/97 34/50/98 35/52/99
f 34/50/98 36/51/100 35/52/99
s 26
f 35/52/101 36/51/102 37/54/103
f 36/51/102 38/53/104 37/54/103
s 27
f 37/54/105 38/53/106 39/56/107
f 38/53/106 40/55/108 39/56/107
s 28
f 39/56/109 40/55/110 33/49/111
f 40/55/110 34/50/112 33/49/111
s 29
f 34/50/113 40/55/114 36/51/115
f 40/55/114 38/53/116 36/51/115
s 30
f 39/56/117 33/49/118 37/54/119
f 33/49/118 35/52/120 37/54/119
s 31
usemtl tot_tile_build_mat2
f 41/57/121 42/58/122 43/60/123
f 42/58/122 44/59/124 43/60/123
s 32
f 43/61/125 44/62/126 45/64/127
f 44/62/126 46/63/128 45/64/127
s 33
f 45/65/129 46/66/130 47/68/131
f 46/66/130 48/67/132 47/68/131
s 34
f 47/69/133 48/70/134 41/72/135
f 48/70/134 42/71/136 41/72/135
s 35
f 42/73/137 48/74/138 44/76/139
f 48/74/138 46/75/140 44/76/139
s 36
f 47/77/141 41/78/142 45/80/143
f 41/78/142 43/79/144 45/80/143
